<svg width="288" height="99" viewBox="0 0 288 99" fill="none" xmlns="http://www.w3.org/2000/svg">
<g filter="url(#filter0_d)">
<path d="M95.712 43.776C96.7787 41.8133 98.3573 40.32 100.448 39.296C102.539 38.272 105.077 37.76 108.064 37.76V43.712C107.723 43.6693 107.253 43.648 106.656 43.648C103.328 43.648 100.704 44.6507 98.784 46.656C96.9067 48.6187 95.968 51.4347 95.968 55.104V72H89.824V38.08H95.712V43.776ZM127.926 37.76C132.619 37.76 136.203 38.912 138.678 41.216C141.195 43.52 142.454 46.9547 142.454 51.52V72H136.63V67.52C135.606 69.0987 134.134 70.3147 132.214 71.168C130.337 71.9787 128.097 72.384 125.494 72.384C121.697 72.384 118.646 71.4667 116.342 69.632C114.081 67.7973 112.95 65.3867 112.95 62.4C112.95 59.4133 114.038 57.024 116.214 55.232C118.39 53.3973 121.846 52.48 126.582 52.48H136.31V51.264C136.31 48.6187 135.542 46.592 134.006 45.184C132.47 43.776 130.209 43.072 127.222 43.072C125.217 43.072 123.254 43.4133 121.334 44.096C119.414 44.736 117.793 45.6107 116.47 46.72L113.91 42.112C115.659 40.704 117.75 39.6373 120.182 38.912C122.614 38.144 125.195 37.76 127.926 37.76ZM126.518 67.648C128.865 67.648 130.891 67.136 132.598 66.112C134.305 65.0453 135.542 63.552 136.31 61.632V56.896H126.838C121.633 56.896 119.03 58.6453 119.03 62.144C119.03 63.8507 119.691 65.1947 121.014 66.176C122.337 67.1573 124.171 67.648 126.518 67.648ZM171.936 37.76C176.245 37.76 179.659 39.0187 182.176 41.536C184.736 44.0107 186.016 47.6587 186.016 52.48V72H179.872V53.184C179.872 49.8987 179.083 47.424 177.504 45.76C175.925 44.096 173.664 43.264 170.72 43.264C167.392 43.264 164.768 44.2453 162.848 46.208C160.928 48.128 159.968 50.9013 159.968 54.528V72H153.824V38.08H159.712V43.2C160.949 41.4507 162.613 40.1067 164.704 39.168C166.837 38.2293 169.248 37.76 171.936 37.76ZM230.022 38.08V67.392C230.022 73.3227 228.55 77.696 225.606 80.512C222.662 83.3707 218.267 84.8 212.422 84.8C209.222 84.8 206.171 84.352 203.27 83.456C200.369 82.6027 198.022 81.3653 196.23 79.744L199.174 75.008C200.753 76.3733 202.694 77.44 204.998 78.208C207.345 79.0187 209.755 79.424 212.23 79.424C216.198 79.424 219.121 78.4853 220.998 76.608C222.918 74.7307 223.878 71.872 223.878 68.032V65.344C222.427 67.0933 220.635 68.416 218.502 69.312C216.411 70.1653 214.129 70.592 211.654 70.592C208.411 70.592 205.467 69.9093 202.822 68.544C200.219 67.136 198.171 65.1947 196.678 62.72C195.185 60.2027 194.438 57.344 194.438 54.144C194.438 50.944 195.185 48.1067 196.678 45.632C198.171 43.1147 200.219 41.1733 202.822 39.808C205.467 38.4427 208.411 37.76 211.654 37.76C214.214 37.76 216.582 38.2293 218.758 39.168C220.977 40.1067 222.79 41.4933 224.198 43.328V38.08H230.022ZM212.358 65.216C214.577 65.216 216.561 64.7467 218.31 63.808C220.102 62.8693 221.489 61.568 222.47 59.904C223.494 58.1973 224.006 56.2773 224.006 54.144C224.006 50.8587 222.918 48.2133 220.742 46.208C218.566 44.16 215.771 43.136 212.358 43.136C208.902 43.136 206.086 44.16 203.91 46.208C201.734 48.2133 200.646 50.8587 200.646 54.144C200.646 56.2773 201.137 58.1973 202.118 59.904C203.142 61.568 204.529 62.8693 206.278 63.808C208.07 64.7467 210.097 65.216 212.358 65.216ZM272.418 55.232C272.418 55.7013 272.375 56.32 272.29 57.088H244.77C245.154 60.0747 246.455 62.4853 248.674 64.32C250.935 66.112 253.73 67.008 257.058 67.008C261.111 67.008 264.375 65.6427 266.85 62.912L270.242 66.88C268.706 68.672 266.786 70.0373 264.482 70.976C262.22 71.9147 259.682 72.384 256.866 72.384C253.282 72.384 250.103 71.6587 247.33 70.208C244.556 68.7147 242.402 66.6453 240.866 64C239.372 61.3547 238.626 58.368 238.626 55.04C238.626 51.7547 239.351 48.7893 240.802 46.144C242.295 43.4987 244.322 41.4507 246.882 40C249.484 38.5067 252.407 37.76 255.65 37.76C258.892 37.76 261.772 38.5067 264.29 40C266.85 41.4507 268.834 43.4987 270.242 46.144C271.692 48.7893 272.418 51.8187 272.418 55.232ZM255.65 42.944C252.706 42.944 250.231 43.84 248.226 45.632C246.263 47.424 245.111 49.7707 244.77 52.672H266.53C266.188 49.8133 265.015 47.488 263.01 45.696C261.047 43.8613 258.594 42.944 255.65 42.944Z" fill="#FEDBAB"/>
<g clip-path="url(#clip0)">
<path d="M45.0204 6C25.7729 6 10 21.7729 10 41.0204C10 60.268 25.7729 76.0408 45.0204 76.0408C64.268 76.0408 80.0408 60.268 80.0408 41.0204C80.0408 21.7729 64.268 6 45.0204 6Z" fill="#FF8C2E"/>
<path d="M80.0408 41.0204C80.0408 60.268 64.2679 76.0408 45.0204 76.0408V6C64.2679 6 80.0408 21.7729 80.0408 41.0204Z" fill="#FF8C2E"/>
<path d="M45.0204 10.2407C28.03 10.2407 14.2407 24.03 14.2407 41.0204C14.2407 58.0107 28.03 71.8 45.0204 71.8C62.0107 71.8 75.8 58.0107 75.8 41.0204C75.8 24.03 62.0107 10.2407 45.0204 10.2407Z" fill="#FEDBAB"/>
<path d="M75.8 41.0204C75.8 58.0107 62.0108 71.8 45.0204 71.8V10.2407C62.0108 10.2407 75.8 24.03 75.8 41.0204Z" fill="#FEDBAB"/>
<path d="M67.4281 31.6225C67.7973 28.0521 66.5662 24.4814 63.9807 21.8961C61.4362 19.3514 57.8247 18.1204 54.2953 18.4897C52.0382 15.699 48.6319 14.0573 45.0204 14.0573C41.4089 14.0573 38.0025 15.6992 35.7455 18.4897C32.175 18.1202 28.6046 19.3514 26.0601 21.8961C23.4746 24.4814 22.2435 28.0521 22.6127 31.6225C19.822 33.8385 18.1805 37.2449 18.1805 40.8564C18.1805 44.5088 19.822 47.9151 22.6127 50.1311C22.2435 53.7018 23.4746 57.2722 26.0601 59.8577C28.6046 62.4022 32.175 63.6332 35.7455 63.2639C38.0026 66.0546 41.4089 67.6963 45.0204 67.6963C48.6319 67.6963 52.0383 66.0546 54.2953 63.2639C57.8658 63.6334 61.4362 62.4022 63.9807 59.8577C66.5662 57.2722 67.7973 53.7018 67.4281 50.1311C70.2188 47.9151 71.8603 44.5086 71.8603 40.8564C71.8601 37.2449 70.2187 33.8385 67.4281 31.6225Z" fill="#FEA832"/>
<path d="M71.8601 40.8564C71.8601 44.5088 70.2187 47.9151 67.428 50.1311C67.7972 53.7018 66.566 57.2722 63.9805 59.8577C61.4361 62.4022 57.8656 63.6332 54.2952 63.2639C52.0383 66.0544 48.6319 67.6961 45.0204 67.6961V14.0574C48.6319 14.0574 52.0383 15.6992 54.2953 18.4898C57.8247 18.1203 61.4362 19.3515 63.9807 21.8963C66.5661 24.4815 67.7973 28.0522 67.4281 31.6226C70.2187 33.8385 71.8601 37.2449 71.8601 40.8564Z" fill="#FEA832"/>
<path d="M69.1332 53.3844L48.0563 44.3509L49.6715 40.5795L70.7483 49.6132L69.1332 53.3844Z" fill="#FEDBAB"/>
<path d="M53.6871 67.9225L44.7379 45.5512L48.5493 44.0282L57.4986 66.3995L53.6871 67.9225Z" fill="#FEDBAB"/>
<path d="M36.0689 67.1069L32.2977 65.4919L41.5156 43.9841L45.2868 45.5993L36.0689 67.1069Z" fill="#FEDBAB"/>
<path d="M20.9578 52.7692L19.4348 48.9577L40.4175 40.5635L41.9403 44.3748L20.9578 52.7692Z" fill="#FEDBAB"/>
<path d="M40.4715 41.2168L18.9218 31.9809L20.5369 28.2096L42.0867 37.4454L40.4715 41.2168Z" fill="#FEDBAB"/>
<path d="M41.5897 37.9705L32.5021 15.2484L36.3136 13.7255L45.4011 36.4475L41.5897 37.9705Z" fill="#FEDBAB"/>
<path d="M48.4311 38.0166L44.6597 36.4014L54.138 14.2485L57.9094 15.8637L48.4311 38.0166Z" fill="#FEDBAB"/>
<path d="M49.5693 41.2169L47.9541 37.4455L69.2354 28.3239L70.8505 32.0952L49.5693 41.2169Z" fill="#FEDBAB"/>
<path d="M45.0204 34.8645C41.614 34.8645 38.8645 37.614 38.8645 41.0204C38.8645 44.4269 41.614 47.1764 45.0204 47.1764C48.4269 47.1764 51.1764 44.4269 51.1764 41.0204C51.1764 37.614 48.4269 34.8645 45.0204 34.8645Z" fill="#FEDBAB"/>
<path d="M51.1763 41.0204C51.1763 44.4269 48.4268 47.1764 45.0204 47.1764V34.8645C48.4268 34.8645 51.1763 37.614 51.1763 41.0204Z" fill="#FEDBAB"/>
</g>
</g>
<defs>
<filter id="filter0_d" x="0" y="0" width="282.418" height="98.8" filterUnits="userSpaceOnUse" color-interpolation-filters="sRGB">
<feFlood flood-opacity="0" result="BackgroundImageFix"/>
<feColorMatrix in="SourceAlpha" type="matrix" values="0 0 0 0 0 0 0 0 0 0 0 0 0 0 0 0 0 0 127 0"/>
<feOffset dy="4"/>
<feGaussianBlur stdDeviation="5"/>
<feColorMatrix type="matrix" values="0 0 0 0 0.5 0 0 0 0 0.403841 0 0 0 0 0.164583 0 0 0 1 0"/>
<feBlend mode="normal" in2="BackgroundImageFix" result="effect1_dropShadow"/>
<feBlend mode="normal" in="SourceGraphic" in2="effect1_dropShadow" result="shape"/>
</filter>
<clipPath id="clip0">
<rect x="10" y="6" width="70.0408" height="70.0408" rx="35.0204" fill="white"/>
</clipPath>
</defs>
</svg>
